<svg viewBox="0 0 395.52 133.15555519861155" height="133.15555519861155" width="395.52" data-background-color="#000000" preserveAspectRatio="xMidYMid meet" id="tight-bounds" xmlns="http://www.w3.org/2000/svg" xmlns:xlink="http://www.w3.org/1999/xlink"><g><svg viewBox="0 0 726.0492539195847 244.43135999999998" height="133.15555519861155" width="395.52"><g transform="matrix(1,0,0,1,330.5292539195847,18.572692623812685)"><svg viewBox="0 0 395.52 207.2859747523746" height="207.2859747523746" width="395.52"><g id="textblocktransform"><svg viewBox="0 0 395.52 207.2859747523746" height="207.2859747523746" width="395.52" id="textblock"><g><svg viewBox="0 0 395.52 145.88165492398156" height="145.88165492398156" width="395.52"><g transform="matrix(1,0,0,1,0,0)"><svg width="395.52" viewBox="1.0299999713897705 -37.939998626708984 147.45350646972656 54.39999771118164" height="145.88165492398156" data-palette-color="#636365"><path d="M8.79-30.42L8.79-30.42Q10.6-30.42 11.94-29.37 13.28-28.32 14.28-26.56 15.28-24.8 15.97-22.51 16.65-20.21 17.09-17.7 17.53-15.19 17.77-12.62 18.02-10.06 18.12-7.81 18.21-5.57 18.24-3.76 18.26-1.95 18.26-0.93L18.26-0.93 17.09-0.93 15.23-11.23Q14.99-11.47 14.14-11.52 13.28-11.57 12.13-11.47 10.99-11.38 9.64-11.21 8.3-11.04 7.1-10.96 5.91-10.89 4.93-10.91 3.96-10.94 3.52-11.23L3.52-11.23 3.52-0.93 1.03-0.93Q1.03-1.07 1.05-1.49 1.07-1.9 1.07-2.34 1.07-2.78 1.12-3.17 1.17-3.56 1.17-3.71L1.17-3.71Q1.46-6.54 1.64-9.45 1.81-12.35 2.05-15.09 2.29-17.82 2.71-20.31 3.13-22.8 3.91-24.83 4.69-26.86 5.86-28.3 7.03-29.74 8.79-30.42ZM9.57-28.17L9.57-28.17Q8.3-28.17 7.45-27.27 6.59-26.37 6.05-24.93 5.52-23.49 5.22-21.73 4.93-19.97 4.83-18.29 4.74-16.6 4.71-15.16 4.69-13.72 4.69-12.94L4.69-12.94Q7.08-12.94 9.57-13.31 12.06-13.67 14.26-14.06L14.26-14.06Q14.31-14.26 14.33-14.7 14.36-15.14 14.38-15.67 14.4-16.21 14.43-16.7 14.45-17.19 14.45-17.33L14.45-17.33Q14.45-18.95 14.28-20.41 14.11-21.88 13.6-23.27 13.09-24.66 12.13-25.88 11.18-27.1 9.57-28.17ZM21.58-37.94L21.58-37.94Q22.26-37.84 22.78-37.57 23.29-37.3 23.58-36.62L23.58-36.62Q23.58-35.69 23.65-34.06 23.73-32.42 23.8-30.27 23.87-28.13 23.97-25.63 24.07-23.14 24.17-20.61 24.27-18.07 24.34-15.58 24.41-13.09 24.48-10.94 24.56-8.79 24.61-7.13 24.66-5.47 24.7-4.59L24.7-4.59Q24.7-4.49 24.68-4.25 24.66-4 24.63-3.66 24.61-3.32 24.58-3 24.56-2.69 24.56-2.54L24.56-2.54Q24.51-2.25 24.51-1.83 24.51-1.42 24.41-1.03 24.31-0.63 24.09-0.32 23.87 0 23.39 0.05L23.39 0.05 22.56-0.98Q22.51-1.03 22.43-2.81 22.36-4.59 22.24-7.45 22.12-10.3 22.02-13.89 21.92-17.48 21.8-21.14 21.68-24.8 21.58-28.17 21.48-31.54 21.43-33.98L21.43-33.98Q21.43-34.18 21.46-34.77 21.48-35.35 21.51-35.96 21.53-36.57 21.56-37.13 21.58-37.7 21.58-37.94ZM20.55 11.57L20.55 11.57Q20.55 10.25 20.99 9.57 21.43 8.89 23.04 8.89L23.04 8.89Q22.9 9.57 22.68 10.25 22.46 10.94 22.29 11.52 22.11 12.11 22.14 12.45 22.16 12.79 22.5 12.7L22.5 12.7Q24.07 13.72 25.92 14.16 27.78 14.6 29.58 14.6L29.58 14.6Q32.32 14.55 34.3 13.48 36.27 12.4 37.57 10.69 38.86 8.98 39.57 6.76 40.28 4.54 40.45 2.17 40.62-0.2 40.33-2.59 40.03-4.98 39.4-6.98L39.4-6.98Q38.57-6.05 37.71-5.03 36.86-4 35.88-3.2 34.91-2.39 33.81-1.86 32.71-1.32 31.34-1.32L31.34-1.32Q29.93-1.32 29.22-1.81 28.51-2.29 28.27-3.15 28.02-4 28.05-5.13 28.07-6.25 28.07-7.52L28.07-7.52Q28.07-8.69 28.14-10.16 28.22-11.62 28.49-13.11 28.75-14.6 29.22-16.04 29.68-17.48 30.46-18.63 31.24-19.78 32.42-20.46 33.59-21.14 35.2-21.14L35.2-21.14Q36.23-21.14 37.18-20.97 38.13-20.8 38.94-20.36 39.74-19.92 40.33-19.19 40.91-18.46 41.25-17.33L41.25-17.33Q41.45-15.14 41.74-12.57 42.04-10.01 42.23-7.25 42.43-4.49 42.43-1.71 42.43 1.07 42.06 3.66 41.69 6.25 40.84 8.52 39.99 10.79 38.45 12.52 36.91 14.26 34.61 15.31 32.32 16.36 29.1 16.46L29.1 16.46Q27.73 16.46 26.22 16.28 24.7 16.11 23.43 15.6 22.16 15.09 21.36 14.14 20.55 13.18 20.55 11.57ZM29.93-7.52L29.93-7.52Q29.93-6.98 29.88-6.3 29.83-5.62 29.93-4.93 30.02-4.25 30.34-3.76 30.66-3.27 31.39-3.22L31.39-3.22Q32.56-3.22 33.56-3.76 34.57-4.3 35.37-5.22 36.18-6.15 36.79-7.3 37.4-8.45 37.81-9.67 38.23-10.89 38.45-12.04 38.67-13.18 38.67-14.06L38.67-14.06Q38.81-14.99 38.69-15.92 38.57-16.85 38.13-17.58 37.69-18.31 36.96-18.77 36.23-19.24 35.2-19.24L35.2-19.24Q34.03-19.24 33.15-18.58 32.27-17.92 31.68-16.89 31.1-15.87 30.76-14.58 30.41-13.28 30.24-11.99 30.07-10.69 30-9.5 29.93-8.3 29.93-7.52ZM45.01-8.94L45.01-8.94Q45.01-10.06 45.21-11.55 45.4-13.04 45.84-14.55 46.28-16.06 46.94-17.53 47.6-18.99 48.53-20.14 49.46-21.29 50.68-22 51.9-22.71 53.41-22.71L53.41-22.71Q54.97-22.71 56.32-21.63 57.66-20.56 58.61-18.85 59.56-17.14 60.05-15.04 60.54-12.94 60.44-10.94L60.44-10.94Q60.44-8.01 59.32-5.71 58.2-3.42 56.46-2 54.73-0.59 52.75-0.1 50.77 0.39 49.04-0.37 47.31-1.12 46.16-3.22 45.01-5.32 45.01-8.94ZM46.82-8.74L46.82-8.74Q46.97-5.76 47.84-4.15 48.72-2.54 49.97-2.03 51.21-1.51 52.68-2 54.14-2.49 55.41-3.74 56.68-4.98 57.59-6.86 58.49-8.74 58.59-11.08L58.59-11.08Q58.68-12.84 58.32-14.5 57.95-16.16 57.29-17.46 56.63-18.75 55.68-19.51 54.73-20.26 53.51-20.26L53.51-20.26Q52.34-20.26 51.41-19.68 50.48-19.09 49.72-18.09 48.97-17.09 48.43-15.82 47.89-14.55 47.53-13.28 47.16-12.01 46.99-10.82 46.82-9.62 46.82-8.74ZM70.74-30.42L70.74-30.42Q72.55-30.42 73.89-29.37 75.23-28.32 76.24-26.56 77.24-24.8 77.92-22.51 78.6-20.21 79.04-17.7 79.48-15.19 79.73-12.62 79.97-10.06 80.07-7.81 80.17-5.57 80.19-3.76 80.21-1.95 80.21-0.93L80.21-0.93 79.04-0.93 77.19-11.23Q76.94-11.47 76.09-11.52 75.23-11.57 74.09-11.47 72.94-11.38 71.6-11.21 70.25-11.04 69.06-10.96 67.86-10.89 66.88-10.91 65.91-10.94 65.47-11.23L65.47-11.23 65.47-0.93 62.98-0.93Q62.98-1.07 63-1.49 63.03-1.9 63.03-2.34 63.03-2.78 63.08-3.17 63.12-3.56 63.12-3.71L63.12-3.71Q63.42-6.54 63.59-9.45 63.76-12.35 64-15.09 64.25-17.82 64.66-20.31 65.08-22.8 65.86-24.83 66.64-26.86 67.81-28.3 68.98-29.74 70.74-30.42ZM71.52-28.17L71.52-28.17Q70.25-28.17 69.4-27.27 68.54-26.37 68.01-24.93 67.47-23.49 67.18-21.73 66.88-19.97 66.79-18.29 66.69-16.6 66.66-15.16 66.64-13.72 66.64-12.94L66.64-12.94Q69.03-12.94 71.52-13.31 74.01-13.67 76.21-14.06L76.21-14.06Q76.26-14.26 76.28-14.7 76.31-15.14 76.33-15.67 76.36-16.21 76.38-16.7 76.41-17.19 76.41-17.33L76.41-17.33Q76.41-18.95 76.24-20.41 76.06-21.88 75.55-23.27 75.04-24.66 74.09-25.88 73.13-27.1 71.52-28.17ZM82.02-19.04L82.02-19.04Q82.6-19.29 83.04-19.14 83.48-18.99 83.78-18.6 84.07-18.21 84.22-17.7 84.36-17.19 84.46-16.7L84.46-16.7Q85.09-17.77 86.29-18.43 87.49-19.09 88.85-19.31 90.22-19.53 91.59-19.41 92.96-19.29 93.91-18.82 94.86-18.36 95.25-17.55 95.64-16.75 95.06-15.67L95.06-15.67Q93.79-16.41 92.39-16.85 91-17.29 89.68-17.14 88.37-16.99 87.24-16.14 86.12-15.28 85.39-13.43 84.66-11.57 84.48-8.52 84.31-5.47 84.9-0.93L84.9-0.93 83.04-0.93Q83.04-0.93 82.97-1.73 82.9-2.54 82.82-3.86 82.75-5.18 82.63-6.79 82.51-8.4 82.41-10.06 82.31-11.72 82.24-13.26 82.17-14.79 82.07-15.92L82.07-15.92Q82.07-16.06 82.04-16.5 82.02-16.94 82.02-17.46 82.02-17.97 82.02-18.41 82.02-18.85 82.02-19.04ZM97.59-11.47L97.59-11.47Q97.59-12.94 98.23-14.72 98.86-16.5 99.96-18.04 101.06-19.58 102.45-20.63 103.84-21.68 105.36-21.68L105.36-21.68Q106.19-21.68 106.99-21.34 107.8-21 108.55-20.43 109.31-19.87 109.92-19.17 110.53-18.46 110.87-17.68 111.22-16.89 111.24-16.16 111.26-15.43 110.82-14.89L110.82-14.89 100.52-12.99Q100.33-12.94 100.18-12.52 100.03-12.11 99.94-11.47 99.84-10.84 99.77-10.08 99.69-9.33 99.64-8.62 99.59-7.91 99.59-7.35 99.59-6.79 99.59-6.49L99.59-6.49Q99.59-5.13 100.25-4.27 100.91-3.42 101.94-2.98 102.96-2.54 104.26-2.39 105.55-2.25 106.82-2.25 108.09-2.25 109.21-2.34 110.34-2.44 111.07-2.44L111.07-2.44Q111.07-2.25 110.92-2 110.78-1.76 110.58-1.54 110.39-1.32 110.19-1.15 109.99-0.98 109.95-0.93L109.95-0.93Q109.56-0.83 108.75-0.66 107.94-0.49 107.04-0.34 106.14-0.2 105.36-0.1 104.57 0 104.28 0L104.28 0Q102.77 0.29 101.65-0.05 100.52-0.39 99.74-1.22 98.96-2.05 98.47-3.25 97.98-4.44 97.74-5.81 97.49-7.18 97.47-8.64 97.45-10.11 97.59-11.47ZM104.67-19.82L104.67-19.82Q104.23-19.82 103.53-19.36 102.82-18.9 102.21-18.19 101.6-17.48 101.18-16.67 100.77-15.87 100.91-15.28L100.91-15.28Q102.18-15.14 103.55-15.33 104.92-15.53 106.04-15.94 107.16-16.36 107.9-16.92 108.63-17.48 108.6-18.07 108.58-18.65 107.68-19.12 106.77-19.58 104.67-19.82ZM114.44-0.24L114.44-0.24Q114.34-1.03 114.26-2.51 114.19-4 114.12-5.88 114.05-7.76 114-9.81 113.95-11.87 113.9-13.72 113.85-15.58 113.78-17.07 113.7-18.55 113.56-19.34L113.56-19.34Q113.56-19.38 113.53-19.58 113.51-19.78 113.48-20.02 113.46-20.26 113.46-20.43 113.46-20.61 113.46-20.7L113.46-20.7Q114.19-21.29 114.7-21.09 115.22-20.9 115.56-20.24 115.9-19.58 116.05-18.6 116.19-17.63 116.27-16.65 116.34-15.67 116.34-14.87 116.34-14.06 116.34-13.72L116.34-13.72Q116.44-14.55 116.63-15.67 116.83-16.8 117.22-17.97 117.61-19.14 118.17-20.29 118.73-21.44 119.56-22.31 120.39-23.19 121.44-23.68 122.49-24.17 123.86-24.07L123.86-24.07Q126.01-23.97 127.4-22.9 128.79-21.83 129.6-20.02 130.4-18.21 130.77-15.87 131.13-13.53 131.26-10.89 131.38-8.25 131.33-5.54 131.28-2.83 131.28-0.34L131.28-0.34Q130.84-0.24 130.4-0.02 129.96 0.2 129.67 0.17 129.38 0.15 129.25-0.27 129.13-0.68 129.33-1.9L129.33-1.9Q129.38-2.78 129.5-4.61 129.62-6.45 129.6-8.69 129.57-10.94 129.33-13.33 129.08-15.72 128.42-17.7 127.77-19.68 126.55-20.92 125.32-22.17 123.37-22.17L123.37-22.17Q121.37-21.34 120.03-19.04 118.68-16.75 117.88-13.67 117.07-10.6 116.71-7.01 116.34-3.42 116.29 0L116.29 0Q116.19-0.05 115.92-0.05 115.66-0.05 115.34-0.07 115.02-0.1 114.75-0.15 114.48-0.2 114.44-0.24ZM133.48-4.2L133.48-4.2Q133.48-6.98 135.01-8.25 136.55-9.52 139.04-9.52L139.04-9.52Q140.02-9.52 140.87-9.47 141.73-9.42 142.51-9.23 143.29-9.03 144.05-8.64 144.8-8.25 145.63-7.52L145.63-7.52Q145.63-7.67 145.66-8.13 145.68-8.59 145.68-9.13 145.68-9.67 145.68-10.13 145.68-10.6 145.68-10.79L145.68-10.79Q145.63-11.67 145.63-13.06 145.63-14.45 145.41-15.92 145.19-17.38 144.54-18.7 143.88-20.02 142.41-20.7L142.41-20.7Q141.39-20.7 140.51-20.36 139.63-20.02 138.75-19.63 137.87-19.24 136.99-18.92 136.11-18.6 135.09-18.6L135.09-18.6Q135.09-19.82 135.84-20.63 136.6-21.44 137.68-21.88 138.75-22.31 139.92-22.46 141.09-22.61 141.97-22.61L141.97-22.61Q142.85-22.46 143.61-22.27 144.36-22.07 145.02-21.48 145.68-20.9 146.24-19.7 146.81-18.51 147.22-16.36 147.64-14.21 147.95-10.91 148.27-7.62 148.47-2.83L148.47-2.83Q148.56-2.2 148.05-1.73 147.54-1.27 146.66-0.95 145.78-0.63 144.68-0.42 143.58-0.2 142.46-0.1 141.34 0 140.31 0.05 139.29 0.1 138.6 0.1L138.6 0.1Q137.72 0.1 136.82-0.2 135.92-0.49 135.16-1.05 134.4-1.61 133.94-2.42 133.48-3.22 133.48-4.2ZM139.82-7.62L139.82-7.62Q137.38-6.93 136.41-5.98 135.43-5.03 135.55-4.15 135.67-3.27 136.7-2.56 137.72-1.86 139.19-1.64 140.65-1.42 142.36-1.88 144.07-2.34 145.63-3.71L145.63-3.71Q145.05-5.13 144.46-5.88 143.88-6.64 143.19-7.03 142.51-7.42 141.68-7.52 140.85-7.62 139.82-7.62Z" opacity="1" transform="matrix(1,0,0,1,0,0)" fill="#636365" class="wordmark-text-0" data-fill-palette-color="primary" id="text-0"></path></svg></g></svg></g><g transform="matrix(1,0,0,1,75.54432,180.32081249181545)"><svg viewBox="0 0 244.43135999999998 26.96516226055919" height="26.96516226055919" width="244.43135999999998"><g transform="matrix(1,0,0,1,0,0)"><svg width="244.43135999999998" viewBox="2.5999999046325684 -33.130001068115234 378.19000244140625 41.730003356933594" height="26.96516226055919" data-palette-color="#89939e"><path d="M14.45 0.58L14.45 0.58Q8.53 0.58 5.56-2.75 2.6-6.08 2.6-12.2L2.6-12.2 2.6-19.78Q2.6-25.9 5.55-29.21 8.5-32.52 14.4-32.52L14.4-32.52Q16.3-32.52 17.86-32.18 19.43-31.83 20.65-31.28 21.88-30.73 22.73-30.13L22.73-30.13 23.08-26.28Q21.6-27.33 19.61-28.11 17.63-28.9 14.95-28.9L14.95-28.9Q10.93-28.9 8.88-26.51 6.83-24.13 6.83-19.73L6.83-19.73 6.83-12.35Q6.83-7.98 8.9-5.56 10.98-3.15 15.1-3.15L15.1-3.15Q17.75-3.15 19.79-3.93 21.83-4.7 23.33-5.83L23.33-5.83 22.98-1.88Q22.13-1.28 20.88-0.7 19.63-0.13 18.01 0.23 16.4 0.58 14.45 0.58ZM37.7 0.63L37.7 0.63Q32.45 0.63 29.73-2.21 27.02-5.05 27.02-10.38L27.02-10.38 27.02-14.1Q27.02-19.4 29.75-22.23 32.47-25.05 37.7-25.05L37.7-25.05Q42.95-25.05 45.66-22.23 48.37-19.4 48.37-14.1L48.37-14.1 48.37-10.38Q48.37-5.05 45.66-2.21 42.95 0.63 37.7 0.63ZM37.7-2.68L37.7-2.68Q40.95-2.68 42.63-4.6 44.32-6.53 44.32-10.15L44.32-10.15 44.32-14.33Q44.32-17.93 42.63-19.84 40.95-21.75 37.7-21.75L37.7-21.75Q34.47-21.75 32.77-19.84 31.07-17.93 31.07-14.33L31.07-14.33 31.07-10.15Q31.07-6.53 32.77-4.6 34.47-2.68 37.7-2.68ZM62.05 0.53L62.05 0.53Q57.65 0.53 55.34-2.2 53.05-4.93 53.05-10.15L53.05-10.15 53.05-14.18Q53.05-19.43 55.37-22.19 57.7-24.95 62.22-24.95L62.22-24.95Q64.47-24.95 66.12-24.19 67.77-23.43 68.8-22.05 69.82-20.68 70.17-18.8L70.17-18.8 71.5-18.8 70.3-15.08Q70.22-17.23 69.33-18.69 68.44-20.15 66.93-20.9 65.42-21.65 63.47-21.65L63.47-21.65Q60.37-21.65 58.73-19.85 57.09-18.05 57.09-14.55L57.09-14.55 57.09-9.9Q57.09-6.45 58.73-4.65 60.37-2.85 63.47-2.85L63.47-2.85Q65.32-2.85 66.75-3.56 68.17-4.28 69.11-5.54 70.05-6.8 70.4-8.4L70.4-8.4 71.4-5.5 70.19-5.5Q69.84-3.85 68.86-2.48 67.87-1.1 66.21-0.29 64.55 0.53 62.05 0.53ZM74.25 0L70.19 0 70.37-5.9 70.3-7.2 70.3-17.4 70.32-18.25 70.22-25.18 70.22-33.13 74.25-33.13 74.25 0ZM91.09 0.55L91.09 0.55Q85.52 0.55 82.69-2.18 79.87-4.9 79.87-9.98L79.87-9.98 79.87-14.33Q79.87-19.48 82.49-22.26 85.12-25.05 90.17-25.05L90.17-25.05Q93.57-25.05 95.84-23.79 98.12-22.53 99.27-20.2 100.42-17.88 100.42-14.65L100.42-14.65 100.42-13.75Q100.42-12.95 100.36-12.15 100.29-11.35 100.19-10.58L100.19-10.58 96.47-10.58Q96.52-11.78 96.53-12.85 96.54-13.93 96.54-14.83L96.54-14.83Q96.54-17.05 95.83-18.59 95.12-20.13 93.71-20.94 92.29-21.75 90.17-21.75L90.17-21.75Q87.02-21.75 85.44-19.93 83.87-18.1 83.87-14.7L83.87-14.7 83.87-12.38 83.89-11.88 83.89-9.55Q83.89-8.03 84.34-6.8 84.79-5.58 85.76-4.69 86.72-3.8 88.21-3.34 89.69-2.88 91.74-2.88L91.74-2.88Q94.12-2.88 96.17-3.5 98.22-4.13 100.02-5.2L100.02-5.2 99.64-1.7Q98.02-0.68 95.87-0.06 93.72 0.55 91.09 0.55ZM99.34-10.58L81.99-10.58 81.99-13.63 99.34-13.63 99.34-10.58ZM105.57-6.78L109.47-6.78Q109.54-6.3 109.63-5.54 109.72-4.78 109.72-3.9L109.72-3.9Q109.72-0.9 108.88 1.65 108.04 4.2 106.02 6.58L106.02 6.58 103.22 5.68Q104.52 3.6 105.14 1.33 105.77-0.95 105.77-3.73L105.77-3.73Q105.77-4.55 105.72-5.29 105.67-6.03 105.57-6.78L105.57-6.78ZM139.64 0.6L139.64 0.6Q136.01 0.6 133.56-0.86 131.11-2.33 129.87-5.13 128.64-7.93 128.64-11.9L128.64-11.9 128.64-19.45Q128.64-25.75 131.87-29.14 135.11-32.52 141.39-32.52L141.39-32.52Q143.64-32.52 145.47-32.16 147.31-31.8 148.74-31.21 150.16-30.63 151.19-29.98L151.19-29.98 151.56-26.23Q149.84-27.33 147.5-28.15 145.16-28.98 142.09-28.98L142.09-28.98Q137.44-28.98 135.15-26.5 132.86-24.03 132.86-19.38L132.86-19.38 132.86-11.93Q132.86-7.63 134.87-5.29 136.89-2.95 140.91-2.95L140.91-2.95Q142.96-2.95 144.42-3.65 145.89-4.35 146.82-5.5 147.76-6.65 148.19-8.03L148.19-8.03 148.19-15.9 148.86-14.43 141.34-14.43 141.34-17.88 152.24-17.88 152.24-5.25 148.16-5.28Q147.76-3.73 146.79-2.38 145.81-1.03 144.06-0.21 142.31 0.6 139.64 0.6ZM148.19 0L148.36-6.6 152.24-6.6 152.24 0 148.19 0ZM177.28 0L173.26 0 173.43-5.93 173.28-6.55 173.28-14.33 173.31-15.75Q173.31-18.73 171.8-20.15 170.28-21.58 167.01-21.58L167.01-21.58Q164.38-21.58 162.2-20.83 160.01-20.08 158.31-19.07L158.31-19.07 158.68-22.53Q159.63-23.1 160.95-23.66 162.26-24.23 163.95-24.6 165.63-24.98 167.66-24.98L167.66-24.98Q170.28-24.98 172.12-24.34 173.96-23.7 175.1-22.5 176.23-21.3 176.76-19.6 177.28-17.9 177.28-15.8L177.28-15.8 177.28 0ZM164.86 0.53L164.86 0.53Q161.23 0.53 159.3-1.24 157.36-3 157.36-6.28L157.36-6.28 157.36-7Q157.36-10.38 159.45-12.04 161.53-13.7 166.08-14.35L166.08-14.35 173.81-15.45 174.03-12.5 166.58-11.43Q163.78-11.03 162.58-10.06 161.38-9.1 161.38-7.23L161.38-7.23 161.38-6.83Q161.38-4.9 162.57-3.88 163.76-2.85 166.13-2.85L166.13-2.85Q168.23-2.85 169.73-3.58 171.23-4.3 172.16-5.53 173.08-6.75 173.41-8.25L173.41-8.25 174.03-5.5 173.26-5.5Q172.91-3.9 171.95-2.53 170.98-1.15 169.26-0.31 167.53 0.53 164.86 0.53ZM218 0L213.96 0 213.96-15.28Q213.96-17.2 213.47-18.61 212.98-20.03 211.87-20.8 210.75-21.58 208.88-21.58L208.88-21.58Q207.11-21.58 205.81-20.85 204.5-20.13 203.71-18.91 202.91-17.7 202.58-16.15L202.58-16.15 201.96-19.03 202.46-19.03Q202.86-20.6 203.81-21.95 204.75-23.3 206.38-24.13 208-24.95 210.41-24.95L210.41-24.95Q213.13-24.95 214.79-23.88 216.46-22.8 217.23-20.74 218-18.68 218-15.73L218-15.73 218 0ZM187.53 0L183.48 0 183.48-24.4 187.53-24.4 187.36-18.55 187.53-18.3 187.53 0ZM202.75 0L198.73 0 198.73-15.28Q198.73-17.2 198.24-18.61 197.75-20.03 196.66-20.8 195.56-21.58 193.68-21.58L193.68-21.58Q191.88-21.58 190.58-20.85 189.28-20.13 188.48-18.89 187.68-17.65 187.36-16.07L187.36-16.07 186.61-18.95 187.5-18.95Q187.88-20.6 188.81-21.96 189.73-23.33 191.32-24.14 192.91-24.95 195.18-24.95L195.18-24.95Q198.56-24.95 200.32-23.2 202.08-21.45 202.53-18.1L202.53-18.1Q202.66-17.6 202.71-17.01 202.75-16.43 202.75-15.85L202.75-15.85 202.75 0ZM234.53 0.55L234.53 0.55Q228.95 0.55 226.13-2.18 223.3-4.9 223.3-9.98L223.3-9.98 223.3-14.33Q223.3-19.48 225.93-22.26 228.55-25.05 233.6-25.05L233.6-25.05Q237-25.05 239.28-23.79 241.55-22.53 242.7-20.2 243.85-17.88 243.85-14.65L243.85-14.65 243.85-13.75Q243.85-12.95 243.79-12.15 243.73-11.35 243.63-10.58L243.63-10.58 239.9-10.58Q239.95-11.78 239.97-12.85 239.98-13.93 239.98-14.83L239.98-14.83Q239.98-17.05 239.27-18.59 238.55-20.13 237.14-20.94 235.73-21.75 233.6-21.75L233.6-21.75Q230.45-21.75 228.88-19.93 227.3-18.1 227.3-14.7L227.3-14.7 227.3-12.38 227.33-11.88 227.33-9.55Q227.33-8.03 227.78-6.8 228.23-5.58 229.19-4.69 230.15-3.8 231.64-3.34 233.13-2.88 235.18-2.88L235.18-2.88Q237.55-2.88 239.6-3.5 241.65-4.13 243.45-5.2L243.45-5.2 243.08-1.7Q241.45-0.68 239.3-0.06 237.15 0.55 234.53 0.55ZM242.78-10.58L225.43-10.58 225.43-13.63 242.78-13.63 242.78-10.58ZM249-6.78L252.9-6.78Q252.98-6.3 253.06-5.54 253.15-4.78 253.15-3.9L253.15-3.9Q253.15-0.9 252.31 1.65 251.48 4.2 249.45 6.58L249.45 6.58 246.65 5.68Q247.95 3.6 248.58 1.33 249.2-0.95 249.2-3.73L249.2-3.73Q249.2-4.55 249.15-5.29 249.1-6.03 249-6.78L249-6.78ZM282.15 0.58L282.15 0.58Q279.85 0.58 277.93 0.2 276.02-0.18 274.52-0.73 273.02-1.28 272.02-1.83L272.02-1.83 271.6-5.95Q273.52-4.8 276.13-3.94 278.75-3.08 281.82-3.08L281.82-3.08Q285.52-3.08 287.3-4.39 289.07-5.7 289.07-8.33L289.07-8.33 289.07-8.72Q289.07-10.45 288.37-11.55 287.67-12.65 286.01-13.4 284.35-14.15 281.5-14.8L281.5-14.8Q277.9-15.65 275.73-16.81 273.57-17.98 272.61-19.73 271.65-21.48 271.65-24.08L271.65-24.08 271.65-24.3Q271.65-28.23 274.22-30.36 276.8-32.5 282.02-32.5L282.02-32.5Q285.45-32.5 287.86-31.8 290.27-31.1 291.8-30.25L291.8-30.25 292.17-26.45Q290.4-27.5 288.03-28.24 285.67-28.98 282.62-28.98L282.62-28.98Q280.2-28.98 278.7-28.4 277.2-27.83 276.52-26.75 275.85-25.68 275.85-24.15L275.85-24.15 275.85-24.05Q275.85-22.5 276.51-21.4 277.17-20.3 278.83-19.5 280.5-18.7 283.57-17.95L283.57-17.95Q287.1-17.13 289.22-16.05 291.35-14.98 292.31-13.25 293.27-11.53 293.27-8.75L293.27-8.75 293.27-8.22Q293.27-3.9 290.48-1.66 287.7 0.58 282.15 0.58ZM302.97 0L298.94 0 298.94-33.13 302.97-33.13 302.97 0ZM319.94 0.55L319.94 0.55Q314.37 0.55 311.54-2.18 308.72-4.9 308.72-9.98L308.72-9.98 308.72-14.33Q308.72-19.48 311.34-22.26 313.97-25.05 319.02-25.05L319.02-25.05Q322.42-25.05 324.69-23.79 326.97-22.53 328.12-20.2 329.27-17.88 329.27-14.65L329.27-14.65 329.27-13.75Q329.27-12.95 329.2-12.15 329.14-11.35 329.04-10.58L329.04-10.58 325.32-10.58Q325.37-11.78 325.38-12.85 325.39-13.93 325.39-14.83L325.39-14.83Q325.39-17.05 324.68-18.59 323.97-20.13 322.55-20.94 321.14-21.75 319.02-21.75L319.02-21.75Q315.87-21.75 314.29-19.93 312.72-18.1 312.72-14.7L312.72-14.7 312.72-12.38 312.74-11.88 312.74-9.55Q312.74-8.03 313.19-6.8 313.64-5.58 314.6-4.69 315.57-3.8 317.05-3.34 318.54-2.88 320.59-2.88L320.59-2.88Q322.97-2.88 325.02-3.5 327.07-4.13 328.87-5.2L328.87-5.2 328.49-1.7Q326.87-0.68 324.72-0.06 322.57 0.55 319.94 0.55ZM328.19-10.58L310.84-10.58 310.84-13.63 328.19-13.63 328.19-10.58ZM344.86 0.55L344.86 0.55Q339.29 0.55 336.46-2.18 333.64-4.9 333.64-9.98L333.64-9.98 333.64-14.33Q333.64-19.48 336.26-22.26 338.89-25.05 343.94-25.05L343.94-25.05Q347.34-25.05 349.61-23.79 351.89-22.53 353.04-20.2 354.19-17.88 354.19-14.65L354.19-14.65 354.19-13.75Q354.19-12.95 354.13-12.15 354.06-11.35 353.96-10.58L353.96-10.58 350.24-10.58Q350.29-11.78 350.3-12.85 350.31-13.93 350.31-14.83L350.31-14.83Q350.31-17.05 349.6-18.59 348.89-20.13 347.48-20.94 346.06-21.75 343.94-21.75L343.94-21.75Q340.79-21.75 339.21-19.93 337.64-18.1 337.64-14.7L337.64-14.7 337.64-12.38 337.66-11.88 337.66-9.55Q337.66-8.03 338.11-6.8 338.56-5.58 339.53-4.69 340.49-3.8 341.98-3.34 343.46-2.88 345.51-2.88L345.51-2.88Q347.89-2.88 349.94-3.5 351.99-4.13 353.79-5.2L353.79-5.2 353.41-1.7Q351.79-0.68 349.64-0.06 347.49 0.55 344.86 0.55ZM353.11-10.58L335.76-10.58 335.76-13.63 353.11-13.63 353.11-10.58ZM371.61 0.53L371.61 0.53Q369.36 0.53 367.71-0.23 366.06-0.98 365.04-2.38 364.01-3.78 363.66-5.63L363.66-5.63 362.34-5.63 363.51-9.43Q363.61-7.23 364.5-5.76 365.39-4.3 366.91-3.58 368.44-2.85 370.36-2.85L370.36-2.85Q373.44-2.85 375.07-4.65 376.71-6.45 376.71-9.93L376.71-9.93 376.71-14.6Q376.71-18.05 375.09-19.85 373.46-21.65 370.36-21.65L370.36-21.65Q368.51-21.65 367.09-20.93 365.66-20.2 364.72-18.95 363.79-17.7 363.44-16.1L363.44-16.1 362.44-18.93 363.61-18.93Q364.01-20.6 364.97-21.96 365.94-23.33 367.62-24.14 369.31-24.95 371.79-24.95L371.79-24.95Q376.19-24.95 378.49-22.21 380.79-19.48 380.79-14.28L380.79-14.28 380.79-10.23Q380.79-4.98 378.47-2.23 376.16 0.53 371.61 0.53ZM363.61 8.6L359.59 8.6 359.59-24.4 363.64-24.4 363.46-18.53 363.51-17.28 363.51-7 363.49-6.18 363.61 0.68 363.61 8.6Z" opacity="1" transform="matrix(1,0,0,1,0,0)" fill="#89939e" class="slogan-text-1" data-fill-palette-color="secondary" id="text-1"></path></svg></g></svg></g></svg></g></svg></g><g><svg viewBox="0 0 244.43135999999998 244.43135999999998" height="244.43135999999998" width="244.43135999999998"><g><svg viewBox="0 0 244.43135999999998 244.43135999999998" height="244.43135999999998" width="244.43135999999998"><g transform="matrix(1,0,0,1,64.60265593644992,64.60265593644992)"><svg viewBox="0 0 115.22604812710014 115.22604812710014" height="115.22604812710014" width="115.22604812710014"><g><svg xmlns="http://www.w3.org/2000/svg" xmlns:xlink="http://www.w3.org/1999/xlink" version="1.1" x="0" y="0" viewBox="1 1 62 62" style="enable-background:new 0 0 64 64;" xml:space="preserve" height="115.22604812710014" width="115.22604812710014" class="icon-b-0" data-fill-palette-color="accent" id="b-0"><g fill="#89939e" data-fill-palette-color="accent"><path d="M60 57H59V26C59 24.346 57.654 23 56 23H55V8H53V9.279L48.632 10.735C47.656 11.061 47 11.971 47 13S47.656 14.939 48.632 15.265L53 16.721V23H41V19H42C43.654 19 45 17.654 45 16V12C45 10.346 43.654 9 42 9H39V7H42V3C42 1.897 41.103 1 40 1H36C34.897 1 34 1.897 34 3V7H37V9H27V7H30V3C30 1.897 29.103 1 28 1H24C22.897 1 22 1.897 22 3V7H25V9H22C20.346 9 19 10.346 19 12V16C19 17.654 20.346 19 22 19H23V23H11V8H9V9.279L4.632 10.735C3.656 11.061 3 11.971 3 13S3.656 14.939 4.632 15.265L9 16.721V23H8C6.346 23 5 24.346 5 26V57H4C2.346 57 1 58.346 1 60V63H63V60C63 58.346 61.654 57 60 57M49.265 13.368A0.387 0.387 0 0 1 49.265 12.632L53 11.388V14.613zM36 3H40V5H36zM24 3H28V5H24zM5.265 13.368A0.387 0.387 0 0 1 5.265 12.632L9 11.388V14.613zM57 41H7V29H57zM21 16V12C21 11.449 21.449 11 22 11H42C42.551 11 43 11.449 43 12V16C43 16.551 42.551 17 42 17H22C21.449 17 21 16.551 21 16M25 19H39V23H25zM8 25H56C56.551 25 57 25.449 57 26V27H7V26C7 25.449 7.449 25 8 25M7 43H57V57H53V47H43V57H37V47H39V45H25V47H27V57H21V47H11V57H7zM51 57H45V49H51zM35 47V57H29V47zM19 57H13V49H19zM61 61H3V60C3 59.449 3.449 59 4 59H60C60.551 59 61 59.449 61 60z" fill="#89939e" data-fill-palette-color="accent"></path><rect x="23" y="13" width="2" height="2" fill="#89939e" data-fill-palette-color="accent"></rect><rect x="27" y="13" width="2" height="2" fill="#89939e" data-fill-palette-color="accent"></rect><rect x="31" y="13" width="2" height="2" fill="#89939e" data-fill-palette-color="accent"></rect><rect x="35" y="13" width="2" height="2" fill="#89939e" data-fill-palette-color="accent"></rect><rect x="39" y="13" width="2" height="2" fill="#89939e" data-fill-palette-color="accent"></rect><path d="M37 31H27V39H37zM35 37H29V33H35z" fill="#89939e" data-fill-palette-color="accent"></path><path d="M53 31H43V39H53zM51 37H45V33H51z" fill="#89939e" data-fill-palette-color="accent"></path><path d="M21 39V31H11V39zM13 33H19V37H13z" fill="#89939e" data-fill-palette-color="accent"></path></g></svg></g></svg></g><g id="text-0"><path d="M7.804 78.948v0c0.646-1.733 1.71-3.054 3.193-3.962 1.485-0.914 3.247-1.538 5.287-1.871 2.037-0.327 4.28-0.409 6.728-0.245 2.442 0.161 4.943 0.48 7.501 0.956 2.566 0.479 5.12 1.056 7.664 1.733 2.541 0.683 4.905 1.38 7.091 2.091 2.188 0.705 4.149 1.37 5.883 1.993 1.743 0.62 3.104 1.112 4.083 1.477v0l-0.627 1.682-15.79-2.845c-0.318 0.146-0.656 0.618-1.012 1.417-0.35 0.801-0.682 1.771-0.996 2.909-0.318 1.129-0.633 2.369-0.945 3.72-0.317 1.342-0.653 2.6-1.01 3.773-0.356 1.173-0.721 2.222-1.095 3.147-0.374 0.925-0.778 1.548-1.214 1.87v0l14.797 5.512-1.332 3.576c-0.142-0.053-0.404-0.165-0.788-0.337-0.39-0.175-0.794-0.34-1.213-0.496-0.425-0.158-0.816-0.33-1.173-0.514-0.357-0.184-0.606-0.303-0.748-0.356v0c-2.601-1.292-5.262-2.536-7.986-3.734-2.721-1.204-5.346-2.41-7.876-3.617-2.536-1.209-4.921-2.457-7.156-3.744-2.238-1.281-4.186-2.66-5.845-4.136-1.661-1.47-2.972-3.022-3.933-4.657-0.961-1.635-1.457-3.415-1.488-5.342zM11.45 79.029v0c-0.451 1.211-0.398 2.387 0.161 3.527 0.559 1.14 1.431 2.224 2.618 3.254 1.187 1.029 2.571 2 4.154 2.912 1.578 0.904 3.155 1.704 4.73 2.4 1.584 0.693 3.06 1.309 4.429 1.848 1.372 0.533 2.431 0.939 3.179 1.217v0c0.852-2.287 1.545-4.689 2.078-7.205 0.54-2.514 1.016-4.893 1.427-7.139v0c-0.17-0.115-0.46-0.263-0.869-0.445-0.416-0.184-0.874-0.381-1.376-0.59-0.506-0.218-0.99-0.424-1.453-0.618-0.454-0.199-0.752-0.324-0.894-0.377v0c-1.546-0.576-3.049-1.044-4.507-1.404-1.467-0.356-2.959-0.537-4.475-0.544-1.516-0.007-3.028 0.229-4.535 0.71-1.511 0.472-3.067 1.29-4.667 2.454z" fill="#89939e" data-fill-palette-color="accent"></path><path d="M11.113 45.875v0c0.478-0.523 0.977-0.924 1.498-1.204 0.52-0.279 1.153-0.349 1.898-0.211v0c0.786 0.531 1.893 1.233 3.319 2.106 1.427 0.873 3.071 1.897 4.933 3.072 1.86 1.165 3.872 2.418 6.038 3.757 2.162 1.345 4.348 2.702 6.559 4.071 2.202 1.372 4.378 2.738 6.528 4.1 2.15 1.362 4.155 2.625 6.014 3.791 1.865 1.169 3.512 2.208 4.941 3.115 1.434 0.911 2.54 1.596 3.317 2.055v0c0.08 0.054 0.217 0.163 0.412 0.328 0.19 0.161 0.424 0.349 0.703 0.562 0.275 0.219 0.541 0.428 0.797 0.626 0.252 0.204 0.441 0.348 0.567 0.433v0c0.218 0.205 0.504 0.427 0.857 0.666 0.353 0.239 0.666 0.512 0.938 0.821 0.277 0.303 0.485 0.639 0.626 1.008 0.141 0.369 0.092 0.772-0.145 1.209v0l-2.014 0.182c-0.067 0.013-0.876-0.459-2.429-1.417-1.552-0.958-3.573-2.203-6.063-3.737-2.485-1.53-5.275-3.283-8.372-5.258-3.094-1.966-6.225-3.946-9.393-5.938-3.174-1.996-6.214-3.913-9.121-5.752-2.908-1.849-5.409-3.452-7.504-4.81v0c-0.165-0.112-0.49-0.343-0.974-0.696-0.48-0.358-0.974-0.72-1.481-1.087-0.497-0.369-0.978-0.727-1.44-1.074-0.461-0.337-0.797-0.576-1.009-0.718z" fill="#89939e" data-fill-palette-color="accent"></path><path d="M66.222 93.357v0c-0.842-1.052-1.308-1.992-1.397-2.818-0.085-0.821 0.517-1.748 1.805-2.779v0c0.316 0.637 0.604 1.3 0.865 1.989 0.266 0.685 0.517 1.317 0.751 1.896 0.24 0.574 0.48 0.99 0.721 1.246 0.231 0.256 0.453 0.236 0.666-0.058v0c1.898-0.181 3.73-0.687 5.496-1.519 1.761-0.837 3.361-1.831 4.799-2.982v0c2.155-1.786 3.675-3.738 4.56-5.856 0.891-2.122 1.308-4.279 1.253-6.472-0.061-2.188-0.518-4.394-1.372-6.617-0.854-2.223-1.968-4.334-3.341-6.336-1.378-1.997-2.947-3.859-4.708-5.584-1.761-1.717-3.535-3.173-5.319-4.369v0c-0.073 1.274-0.121 2.594-0.146 3.961-0.029 1.362-0.174 2.676-0.437 3.943-0.267 1.262-0.666 2.458-1.198 3.587-0.531 1.13-1.344 2.133-2.439 3.01v0c-1.127 0.902-2.13 1.383-3.007 1.442-0.873 0.065-1.682-0.164-2.426-0.687-0.739-0.527-1.456-1.247-2.152-2.161-0.701-0.909-1.458-1.871-2.27-2.886v0c-0.748-0.934-1.558-2.007-2.432-3.219-0.878-1.217-1.684-2.505-2.418-3.864-0.739-1.364-1.383-2.768-1.933-4.213-0.549-1.445-0.88-2.876-0.991-4.292-0.108-1.411 0.086-2.764 0.582-4.059 0.5-1.29 1.394-2.45 2.682-3.481v0c0.816-0.653 1.659-1.218 2.529-1.694 0.869-0.466 1.765-0.783 2.688-0.949 0.923-0.167 1.853-0.144 2.788 0.067 0.935 0.211 1.899 0.656 2.89 1.333v0c1.556 1.625 3.268 3.368 5.136 5.228 1.873 1.856 3.768 3.822 5.686 5.899 1.917 2.076 3.765 4.226 5.544 6.448 1.779 2.222 3.345 4.482 4.7 6.78 1.364 2.299 2.43 4.625 3.196 6.98 0.77 2.36 1.093 4.722 0.968 7.085-0.115 2.365-0.753 4.698-1.914 7-1.16 2.303-2.994 4.523-5.5 6.662v0c-1.095 0.876-2.302 1.728-3.622 2.556-1.315 0.833-2.641 1.449-3.976 1.848-1.345 0.399-2.643 0.477-3.893 0.236-1.249-0.251-2.387-1.018-3.414-2.301zM59.148 61.528v0c0.344 0.429 0.716 0.933 1.117 1.511 0.391 0.577 0.846 1.106 1.364 1.589 0.513 0.487 1.054 0.821 1.621 1.002 0.566 0.19 1.157 0.07 1.772-0.361v0c0.934-0.748 1.629-1.656 2.085-2.726 0.451-1.065 0.704-2.223 0.759-3.475 0.051-1.256-0.046-2.539-0.292-3.848-0.247-1.299-0.596-2.571-1.045-3.814-0.445-1.238-0.949-2.385-1.512-3.44-0.553-1.054-1.111-1.933-1.674-2.636v0c-0.475-0.835-1.057-1.585-1.747-2.248-0.695-0.659-1.449-1.139-2.261-1.439-0.817-0.306-1.667-0.41-2.549-0.312-0.882 0.098-1.73 0.473-2.546 1.126v0c-0.934 0.748-1.542 1.666-1.824 2.755-0.282 1.089-0.33 2.228-0.144 3.418 0.186 1.19 0.557 2.412 1.112 3.667 0.557 1.245 1.177 2.439 1.863 3.582 0.695 1.143 1.395 2.217 2.101 3.219 0.701 0.997 1.301 1.807 1.8 2.43z" fill="#89939e" data-fill-palette-color="accent"></path><path d="M77.277 43.927v0c-0.458-1.053-0.899-2.316-1.323-3.788-0.426-1.479-0.74-3.019-0.942-4.618-0.208-1.597-0.3-3.214-0.277-4.851 0.02-1.643 0.231-3.19 0.635-4.641 0.401-1.457 1.028-2.764 1.88-3.923 0.853-1.159 1.989-2.047 3.408-2.664v0c1.469-0.639 3.049-0.731 4.739-0.274 1.7 0.46 3.343 1.297 4.929 2.512 1.592 1.212 3.043 2.702 4.353 4.471 1.316 1.767 2.335 3.607 3.055 5.521v0c1.196 2.749 1.736 5.427 1.619 8.035-0.111 2.605-0.691 4.924-1.742 6.956-1.048 2.038-2.399 3.688-4.055 4.948-1.653 1.267-3.444 1.9-5.371 1.899-1.937-0.004-3.869-0.757-5.797-2.258-1.934-1.498-3.638-3.939-5.111-7.325zM79.94 43.094v0c1.348 2.735 2.763 4.677 4.244 5.824 1.484 1.154 2.914 1.716 4.289 1.688 1.375-0.028 2.649-0.572 3.823-1.63 1.171-1.049 2.098-2.416 2.782-4.102 0.684-1.685 1.064-3.594 1.141-5.726 0.079-2.127-0.311-4.307-1.172-6.543v0c-0.631-1.69-1.454-3.237-2.469-4.639-1.024-1.406-2.109-2.58-3.254-3.522-1.147-0.948-2.319-1.581-3.515-1.901-1.205-0.323-2.378-0.236-3.52 0.261v0c-1.097 0.477-1.961 1.18-2.592 2.107-0.629 0.933-1.096 2.022-1.402 3.265-0.297 1.247-0.439 2.576-0.425 3.986 0.011 1.405 0.106 2.777 0.285 4.117 0.172 1.342 0.423 2.609 0.753 3.8 0.328 1.184 0.672 2.19 1.032 3.015z" fill="#89939e" data-fill-palette-color="accent"></path><path d="M114.239 0.021v0c1.845-0.123 3.487 0.305 4.923 1.283 1.444 0.979 2.736 2.329 3.878 4.052 1.135 1.723 2.131 3.734 2.987 6.033 0.856 2.293 1.592 4.704 2.21 7.233 0.617 2.536 1.14 5.102 1.568 7.699 0.422 2.597 0.757 5.038 1.006 7.323 0.256 2.284 0.456 4.345 0.599 6.183 0.151 1.844 0.261 3.287 0.331 4.33v0l-1.791 0.119-3.892-15.565c-0.263-0.23-0.833-0.344-1.708-0.341-0.874 0.01-1.895 0.106-3.061 0.287-1.16 0.174-2.42 0.396-3.78 0.666-1.354 0.263-2.639 0.473-3.855 0.63-1.216 0.157-2.322 0.255-3.319 0.294-0.997 0.039-1.731-0.074-2.204-0.339v0l1.053 15.755-3.808 0.255c-0.01-0.151-0.015-0.437-0.016-0.857-0.001-0.427-0.016-0.864-0.046-1.31-0.03-0.453-0.035-0.88-0.013-1.281 0.021-0.401 0.027-0.677 0.017-0.828v0c0.109-2.902 0.151-5.84 0.125-8.815-0.02-2.976 0.001-5.864 0.062-8.666 0.06-2.809 0.219-5.496 0.474-8.063 0.249-2.566 0.706-4.909 1.371-7.028 0.658-2.118 1.535-3.951 2.63-5.499 1.096-1.548 2.515-2.731 4.259-3.55zM115.662 3.378v0c-1.29 0.086-2.34 0.618-3.149 1.595-0.81 0.977-1.44 2.219-1.891 3.724-0.451 1.505-0.767 3.166-0.949 4.983-0.175 1.81-0.257 3.576-0.246 5.299 0.019 1.728 0.064 3.328 0.135 4.797 0.077 1.47 0.143 2.602 0.196 3.398v0c2.435-0.163 4.91-0.517 7.423-1.064 2.514-0.54 4.879-1.084 7.095-1.632v0c0.035-0.202 0.051-0.527 0.049-0.975-0.003-0.455-0.012-0.954-0.028-1.497-0.009-0.551-0.02-1.077-0.033-1.579-0.006-0.496-0.013-0.819-0.023-0.97v0c-0.11-1.646-0.3-3.208-0.572-4.685-0.278-1.484-0.726-2.918-1.342-4.304-0.616-1.385-1.453-2.666-2.51-3.843-1.051-1.184-2.436-2.266-4.155-3.247z" fill="#89939e" data-fill-palette-color="accent"></path><path d="M139.339 17.86v0c0.641-0.09 1.163-0.009 1.567 0.244 0.395 0.258 0.689 0.618 0.882 1.08 0.187 0.46 0.288 0.962 0.304 1.506 0.014 0.55 0.006 1.077-0.024 1.58v0c0.907-0.902 2.034-1.524 3.378-1.865 1.353-0.347 2.734-0.456 4.143-0.327 1.415 0.131 2.783 0.43 4.103 0.899 1.319 0.475 2.389 1.06 3.211 1.755 0.827 0.703 1.33 1.504 1.51 2.403 0.18 0.899-0.157 1.806-1.011 2.722v0c-1.071-1.05-2.239-1.973-3.504-2.768-1.26-0.787-2.561-1.275-3.903-1.466-1.343-0.19-2.679-0.006-4.009 0.553-1.33 0.559-2.594 1.66-3.792 3.303-1.2 1.65-2.273 3.965-3.22 6.945-0.951 2.971-1.717 6.779-2.297 11.422v0l-2.746-0.708c0 0 0.066-0.409 0.199-1.227 0.131-0.811 0.329-1.879 0.592-3.203 0.263-1.324 0.541-2.8 0.834-4.428 0.291-1.622 0.598-3.268 0.923-4.939 0.331-1.668 0.656-3.271 0.974-4.808 0.32-1.543 0.577-2.883 0.771-4.019v0c0.038-0.146 0.099-0.44 0.184-0.879 0.085-0.44 0.193-0.912 0.323-1.418 0.132-0.513 0.254-0.985 0.366-1.419 0.112-0.433 0.192-0.746 0.242-0.938z" fill="#89939e" data-fill-palette-color="accent"></path><path d="M162.18 37.096v0c0.763-1.29 1.886-2.555 3.369-3.796 1.483-1.24 3.109-2.248 4.878-3.023 1.766-0.785 3.534-1.278 5.305-1.477 1.771-0.199 3.322 0.095 4.654 0.881v0c0.728 0.43 1.358 1.006 1.89 1.728 0.526 0.718 0.978 1.521 1.357 2.408 0.373 0.883 0.643 1.798 0.811 2.743 0.171 0.94 0.205 1.842 0.101 2.707-0.11 0.862-0.344 1.622-0.701 2.281-0.358 0.659-0.872 1.11-1.542 1.353v0l-15.079-5.521c-0.196-0.06-0.468 0.055-0.815 0.345-0.338 0.288-0.717 0.686-1.138 1.197-0.418 0.504-0.852 1.07-1.303 1.697-0.46 0.63-0.898 1.242-1.312 1.836-0.409 0.597-0.76 1.144-1.054 1.642-0.29 0.491-0.512 0.867-0.667 1.127v0c-0.71 1.202-0.997 2.35-0.861 3.445 0.136 1.095 0.543 2.102 1.221 3.022 0.669 0.922 1.535 1.782 2.598 2.577 1.065 0.805 2.155 1.537 3.267 2.195 1.119 0.661 2.197 1.242 3.235 1.743 1.041 0.495 1.884 0.934 2.529 1.315v0c-0.101 0.172-0.28 0.326-0.537 0.462-0.26 0.142-0.531 0.257-0.814 0.345-0.287 0.094-0.56 0.164-0.82 0.211-0.263 0.052-0.427 0.087-0.493 0.104v0c-0.396-0.114-0.993-0.307-1.79-0.579-0.798-0.272-1.632-0.577-2.502-0.916-0.87-0.339-1.673-0.669-2.408-0.992-0.745-0.32-1.245-0.556-1.5-0.706v0c-1.486-0.527-2.634-1.233-3.444-2.119-0.81-0.886-1.343-1.896-1.599-3.03-0.253-1.14-0.284-2.364-0.094-3.673 0.193-1.3 0.537-2.618 1.032-3.955 0.497-1.328 1.116-2.639 1.857-3.934 0.739-1.304 1.529-2.519 2.369-3.643zM178.033 31.597v0c-0.385-0.227-1.012-0.322-1.881-0.285-0.863 0.041-1.747 0.213-2.653 0.517-0.9 0.307-1.743 0.707-2.53 1.2-0.783 0.488-1.264 1.03-1.442 1.628v0c1.045 0.785 2.219 1.447 3.523 1.986 1.303 0.538 2.556 0.919 3.757 1.142 1.205 0.217 2.278 0.268 3.217 0.152 0.936-0.11 1.544-0.429 1.824-0.958 0.281-0.529 0.145-1.232-0.406-2.11-0.552-0.877-1.688-1.968-3.409-3.272z" fill="#89939e" data-fill-palette-color="accent"></path><path d="M172.755 64.457v0c0.543-0.593 1.373-1.412 2.49-2.455 1.112-1.038 2.378-2.203 3.799-3.493 1.422-1.3 2.916-2.648 4.483-4.043 1.566-1.386 3.058-2.709 4.476-3.971 1.419-1.261 2.684-2.411 3.796-3.449 1.117-1.043 1.932-1.879 2.443-2.51v0c0.037-0.031 0.122-0.121 0.257-0.271 0.139-0.144 0.294-0.307 0.466-0.488 0.181-0.18 0.337-0.325 0.468-0.436 0.131-0.111 0.236-0.2 0.316-0.266v0c0.936 0.181 1.499 0.538 1.688 1.071 0.185 0.528 0.133 1.143-0.156 1.846-0.293 0.697-0.771 1.426-1.435 2.185-0.664 0.759-1.352 1.489-2.065 2.19-0.718 0.706-1.39 1.322-2.015 1.85-0.63 0.532-1.079 0.912-1.347 1.138v0c0.713-0.477 1.57-1.007 2.571-1.591 1.006-0.589 2.097-1.119 3.274-1.591 1.171-0.467 2.39-0.858 3.655-1.171 1.266-0.323 2.516-0.447 3.749-0.372 1.234 0.065 2.389 0.345 3.464 0.84 1.07 0.5 2.019 1.314 2.847 2.443v0c1.341 1.747 2.051 3.515 2.13 5.302 0.078 1.797-0.323 3.608-1.204 5.431-0.875 1.819-2.107 3.643-3.695 5.471-1.589 1.837-3.373 3.673-5.352 5.507-1.979 1.834-4.04 3.624-6.183 5.371-2.152 1.746-4.2 3.44-6.143 5.082v0c-0.367-0.275-0.779-0.512-1.235-0.711-0.466-0.2-0.784-0.422-0.954-0.666-0.179-0.244-0.146-0.551 0.099-0.921 0.246-0.37 0.908-0.88 1.988-1.531v0c0.719-0.544 1.833-1.373 3.341-2.485 1.513-1.107 3.138-2.412 4.874-3.915 1.737-1.503 3.457-3.137 5.163-4.901 1.71-1.769 3.12-3.563 4.229-5.382 1.109-1.819 1.746-3.617 1.91-5.394 0.169-1.772-0.391-3.419-1.677-4.942v0c-1.974-1.015-4.297-1.289-6.972-0.821-2.678 0.463-5.484 1.393-8.416 2.79-2.928 1.403-5.917 3.144-8.966 5.225-3.039 2.081-5.911 4.228-8.614 6.44v0c-0.025-0.105-0.127-0.262-0.305-0.472-0.177-0.21-0.36-0.447-0.547-0.712-0.188-0.265-0.352-0.517-0.493-0.759-0.141-0.241-0.208-0.396-0.202-0.463z" fill="#89939e" data-fill-palette-color="accent"></path><path d="M195.023 82.855v0c2.655-1.027 4.868-1.042 6.639-0.046 1.78 1 3.129 2.686 4.046 5.059v0c0.36 0.93 0.674 1.811 0.945 2.642 0.27 0.832 0.456 1.656 0.557 2.471 0.104 0.822 0.106 1.666 0.006 2.531-0.094 0.862-0.334 1.825-0.719 2.887v0c0.135-0.052 0.427-0.154 0.877-0.306 0.452-0.145 0.935-0.317 1.448-0.516 0.513-0.198 0.991-0.383 1.433-0.554 0.442-0.171 0.757-0.293 0.943-0.364v0c0.816-0.367 1.888-0.808 3.215-1.321 1.327-0.513 2.649-1.146 3.966-1.899 1.312-0.743 2.475-1.672 3.489-2.787 1.014-1.115 1.578-2.497 1.691-4.148v0c-0.377-0.975-0.891-1.819-1.543-2.533-0.652-0.714-1.325-1.415-2.02-2.105-0.697-0.696-1.358-1.406-1.985-2.129-0.624-0.717-1.125-1.566-1.505-2.548v0c1.161-0.449 2.266-0.46 3.316-0.033 1.047 0.421 1.978 1.063 2.792 1.929 0.814 0.865 1.507 1.828 2.079 2.889 0.573 1.061 1.021 2.012 1.346 2.852v0c0.181 0.888 0.319 1.731 0.414 2.527 0.092 0.79-0.02 1.607-0.335 2.452-0.315 0.844-0.939 1.756-1.872 2.736-0.936 0.974-2.349 2.055-4.241 3.244-1.894 1.182-4.353 2.535-7.377 4.058-3.026 1.517-6.782 3.25-11.27 5.199v0c-0.568 0.323-1.168 0.326-1.798 0.01-0.631-0.316-1.26-0.836-1.886-1.56-0.63-0.715-1.251-1.558-1.863-2.53-0.616-0.963-1.176-1.963-1.68-3-0.51-1.034-0.976-2.029-1.398-2.986-0.431-0.961-0.771-1.766-1.022-2.414v0c-0.325-0.84-0.512-1.744-0.563-2.713-0.05-0.968 0.051-1.918 0.303-2.848 0.254-0.924 0.681-1.756 1.279-2.496 0.598-0.74 1.363-1.29 2.293-1.65zM203.417 90.036v0c-1.554-2.075-2.963-3.402-4.227-3.982-1.27-0.578-2.3-0.648-3.089-0.21-0.795 0.44-1.34 1.281-1.634 2.523-0.296 1.235-0.28 2.593 0.049 4.072 0.329 1.48 1.03 2.949 2.102 4.407 1.072 1.458 2.55 2.678 4.434 3.659v0c1.131-1.079 1.948-2.036 2.45-2.872 0.509-0.838 0.823-1.656 0.942-2.454 0.119-0.798 0.074-1.61-0.135-2.436-0.215-0.823-0.513-1.726-0.892-2.707z" fill="#89939e" data-fill-palette-color="accent"></path><path d="M59.774 155.408v0c0.646 1.733 0.705 3.428 0.177 5.085-0.525 1.663-1.45 3.288-2.774 4.874-1.326 1.58-2.969 3.109-4.927 4.587-1.952 1.476-4.052 2.871-6.3 4.185-2.254 1.316-4.564 2.551-6.929 3.704-2.368 1.146-4.612 2.166-6.731 3.057-2.116 0.898-4.034 1.679-5.753 2.342-1.724 0.671-3.075 1.19-4.054 1.554v0l-0.627-1.682 13.803-8.179c0.146-0.318 0.092-0.896-0.161-1.734-0.26-0.835-0.643-1.786-1.151-2.851-0.498-1.062-1.071-2.206-1.718-3.432-0.639-1.222-1.207-2.393-1.706-3.514-0.498-1.12-0.908-2.153-1.23-3.097-0.322-0.944-0.424-1.68-0.306-2.208v0l-14.796 5.512-1.332-3.576c0.142-0.053 0.414-0.14 0.816-0.26 0.409-0.123 0.823-0.263 1.242-0.419 0.425-0.158 0.833-0.285 1.224-0.378 0.391-0.094 0.657-0.168 0.798-0.221v0c2.812-0.725 5.639-1.525 8.483-2.4 2.846-0.869 5.62-1.675 8.322-2.418 2.709-0.745 5.33-1.362 7.862-1.851 2.53-0.495 4.906-0.727 7.126-0.695 2.218 0.025 4.225 0.341 6.022 0.948 1.796 0.607 3.337 1.63 4.62 3.067zM56.963 157.731v0c-0.451-1.211-1.261-2.065-2.429-2.561-1.168-0.497-2.538-0.746-4.108-0.748-1.571-0.002-3.253 0.17-5.047 0.515-1.785 0.349-3.501 0.776-5.148 1.279-1.651 0.512-3.17 1.012-4.559 1.501-1.386 0.494-2.453 0.881-3.2 1.159v0c0.852 2.287 1.899 4.557 3.142 6.809 1.236 2.254 2.433 4.365 3.592 6.333v0c0.204-0.025 0.52-0.102 0.948-0.232 0.435-0.133 0.91-0.284 1.427-0.455 0.525-0.166 1.026-0.327 1.504-0.483 0.473-0.147 0.781-0.247 0.922-0.3v0c1.546-0.576 2.989-1.205 4.327-1.887 1.342-0.691 2.589-1.529 3.74-2.516 1.151-0.987 2.14-2.154 2.965-3.504 0.834-1.345 1.476-2.982 1.924-4.91z" fill="#89939e" data-fill-palette-color="accent"></path><path d="M76.171 163.877v0c0.307 0.639 0.493 1.252 0.558 1.838 0.065 0.587-0.106 1.2-0.512 1.84v0c-0.786 0.531-1.85 1.296-3.192 2.294-1.342 0.998-2.905 2.142-4.69 3.431-1.775 1.291-3.687 2.691-5.738 4.201-2.054 1.504-4.129 3.027-6.224 4.567-2.094 1.531-4.173 3.04-6.239 4.527-2.065 1.487-3.986 2.876-5.761 4.167-1.781 1.295-3.358 2.435-4.732 3.422-1.38 0.991-2.428 1.761-3.144 2.311v0c-0.08 0.054-0.233 0.141-0.459 0.261-0.22 0.116-0.482 0.263-0.784 0.442-0.306 0.174-0.599 0.342-0.878 0.506-0.283 0.158-0.487 0.28-0.612 0.365v0c-0.272 0.126-0.584 0.308-0.938 0.546-0.353 0.239-0.724 0.427-1.112 0.565-0.384 0.144-0.774 0.212-1.169 0.205-0.395-0.007-0.751-0.202-1.067-0.586v0l0.582-1.937c0.013-0.067 0.753-0.642 2.221-1.725 1.467-1.083 3.377-2.494 5.729-4.232 2.346-1.735 5.013-3.67 8.001-5.806 2.979-2.137 5.983-4.305 9.013-6.501 3.035-2.201 5.949-4.306 8.739-6.317 2.8-2.009 5.221-3.731 7.262-5.168v0c0.165-0.112 0.501-0.326 1.008-0.645 0.511-0.312 1.032-0.635 1.562-0.968 0.528-0.324 1.039-0.636 1.533-0.936 0.484-0.302 0.832-0.525 1.043-0.667z" fill="#89939e" data-fill-palette-color="accent"></path><path d="M20.433 217.565v0c0.842-1.052 1.657-1.712 2.444-1.98 0.783-0.263 1.818 0.121 3.107 1.152v0c-0.552 0.448-1.136 0.874-1.751 1.28-0.61 0.41-1.172 0.793-1.685 1.148-0.508 0.36-0.861 0.685-1.059 0.976-0.199 0.281-0.131 0.494 0.203 0.638v0c0.592 1.813 1.487 3.489 2.685 5.029 1.202 1.535 2.523 2.878 3.962 4.03v0c2.215 1.711 4.452 2.767 6.712 3.166 2.266 0.404 4.462 0.339 6.59-0.195 2.122-0.539 4.174-1.468 6.155-2.788 1.981-1.32 3.798-2.869 5.45-4.647 1.647-1.782 3.119-3.721 4.418-5.817 1.289-2.095 2.322-4.144 3.097-6.147v0c-1.259 0.208-2.557 0.45-3.896 0.725-1.335 0.27-2.649 0.416-3.943 0.438-1.29 0.016-2.544-0.112-3.763-0.383-1.219-0.271-2.376-0.845-3.47-1.721v0c-1.127-0.902-1.816-1.775-2.066-2.618-0.254-0.838-0.208-1.677 0.139-2.518 0.352-0.836 0.898-1.694 1.637-2.573 0.734-0.884 1.506-1.833 2.319-2.847v0c0.748-0.934 1.617-1.96 2.608-3.078 0.996-1.123 2.076-2.192 3.24-3.206 1.169-1.02 2.398-1.956 3.688-2.808 1.29-0.852 2.613-1.488 3.97-1.908 1.353-0.414 2.716-0.521 4.088-0.321 1.368 0.205 2.696 0.824 3.985 1.855v0c0.816 0.653 1.551 1.352 2.206 2.096 0.645 0.745 1.15 1.55 1.515 2.415 0.365 0.865 0.547 1.776 0.545 2.735-0.001 0.959-0.224 1.996-0.667 3.112v0c-1.245 1.875-2.571 3.927-3.977 6.157-1.401 2.234-2.904 4.514-4.51 6.839-1.606 2.325-3.298 4.599-5.077 6.822-1.779 2.222-3.641 4.246-5.586 6.071-1.944 1.835-3.981 3.384-6.11 4.647-2.134 1.269-4.368 2.101-6.701 2.496-2.332 0.405-4.749 0.294-7.25-0.333-2.501-0.628-5.069-1.93-7.705-3.908v0c-1.095-0.876-2.191-1.868-3.286-2.974-1.1-1.101-1.992-2.259-2.675-3.475-0.684-1.225-1.045-2.474-1.083-3.747-0.029-1.274 0.47-2.552 1.497-3.835zM49.94 203.692v0c-0.344 0.429-0.753 0.903-1.229 1.42-0.477 0.508-0.894 1.068-1.252 1.68-0.363 0.608-0.57 1.208-0.622 1.8-0.061 0.594 0.185 1.144 0.74 1.65v0c0.934 0.748 1.973 1.227 3.116 1.437 1.138 0.206 2.324 0.2 3.557-0.02 1.237-0.225 2.467-0.601 3.69-1.128 1.214-0.526 2.378-1.144 3.493-1.855 1.11-0.705 2.119-1.448 3.025-2.228 0.908-0.771 1.643-1.508 2.206-2.211v0c0.711-0.646 1.315-1.378 1.811-2.197 0.491-0.822 0.794-1.663 0.909-2.522 0.119-0.864 0.035-1.716-0.254-2.554-0.289-0.839-0.841-1.585-1.657-2.238v0c-0.934-0.748-1.963-1.14-3.087-1.177-1.124-0.037-2.246 0.166-3.367 0.608-1.12 0.442-2.232 1.072-3.335 1.889-1.093 0.816-2.122 1.683-3.086 2.602-0.963 0.929-1.857 1.847-2.681 2.755-0.82 0.903-1.478 1.666-1.977 2.289z" fill="#89939e" data-fill-palette-color="accent"></path><path d="M73.125 219.328v0c0.458-1.053 1.082-2.236 1.871-3.55 0.792-1.32 1.705-2.599 2.738-3.836 1.027-1.24 2.147-2.41 3.361-3.509 1.216-1.105 2.492-2.005 3.828-2.698 1.339-0.699 2.723-1.132 4.153-1.297 1.429-0.165 2.853 0.061 4.272 0.678v0c1.469 0.639 2.613 1.733 3.43 3.282 0.822 1.557 1.329 3.33 1.521 5.318 0.198 1.991 0.096 4.069-0.306 6.233-0.396 2.167-1.049 4.167-1.958 5.998v0c-1.196 2.749-2.789 4.969-4.777 6.661-1.982 1.694-4.075 2.85-6.277 3.465-2.206 0.622-4.334 0.757-6.385 0.405-2.054-0.346-3.737-1.225-5.05-2.637-1.316-1.42-2.083-3.347-2.299-5.781-0.222-2.436 0.404-5.347 1.878-8.732zM75.549 220.709v0c-1.083 2.85-1.54 5.209-1.369 7.075 0.167 1.873 0.73 3.302 1.687 4.289 0.958 0.987 2.224 1.549 3.799 1.687 1.566 0.141 3.198-0.112 4.897-0.759 1.699-0.648 3.355-1.67 4.969-3.068 1.61-1.391 2.94-3.163 3.989-5.316v0c0.807-1.613 1.378-3.27 1.713-4.969 0.331-1.708 0.451-3.302 0.36-4.781-0.088-1.486-0.423-2.775-1.005-3.868-0.585-1.102-1.448-1.901-2.589-2.398v0c-1.097-0.477-2.2-0.631-3.309-0.461-1.111 0.176-2.226 0.576-3.345 1.198-1.115 0.632-2.184 1.434-3.207 2.406-1.02 0.966-1.96 1.97-2.819 3.014-0.865 1.041-1.621 2.088-2.267 3.141-0.643 1.047-1.145 1.984-1.504 2.81z" fill="#89939e" data-fill-palette-color="accent"></path><path d="M117.935 198.36v0c1.845 0.123 3.415 0.766 4.709 1.927 1.301 1.162 2.402 2.672 3.305 4.531 0.896 1.858 1.615 3.984 2.158 6.377 0.543 2.386 0.953 4.874 1.228 7.462 0.275 2.596 0.451 5.209 0.53 7.84 0.072 2.63 0.08 5.094 0.023 7.392-0.05 2.298-0.126 4.367-0.228 6.207-0.096 1.847-0.179 3.292-0.248 4.335v0l-1.791-0.119-1.788-15.945c-0.23-0.263-0.78-0.452-1.647-0.565-0.868-0.106-1.892-0.147-3.072-0.122-1.173 0.018-2.451 0.071-3.835 0.157-1.377 0.08-2.678 0.117-3.904 0.111-1.226-0.006-2.336-0.056-3.329-0.15-0.993-0.094-1.706-0.303-2.139-0.628v0l-1.052 15.755-3.808-0.255c0.01-0.151 0.043-0.435 0.098-0.851 0.056-0.424 0.099-0.858 0.129-1.304 0.03-0.453 0.083-0.877 0.157-1.271 0.075-0.395 0.117-0.668 0.127-0.819v0c0.494-2.861 0.926-5.768 1.296-8.72 0.376-2.952 0.781-5.812 1.214-8.581 0.433-2.776 0.948-5.418 1.542-7.928 0.588-2.51 1.352-4.771 2.293-6.783 0.934-2.012 2.046-3.712 3.338-5.1 1.292-1.388 2.856-2.373 4.694-2.953zM118.899 201.877v0c-1.29-0.086-2.401 0.301-3.333 1.162-0.933 0.861-1.722 2.007-2.37 3.439-0.647 1.431-1.181 3.036-1.603 4.813-0.415 1.771-0.731 3.51-0.948 5.219-0.211 1.716-0.379 3.306-0.505 4.772-0.119 1.467-0.205 2.598-0.258 3.394v0c2.435 0.163 4.935 0.14 7.499-0.067 2.563-0.201 4.98-0.425 7.249-0.674v0c0.061-0.196 0.121-0.516 0.178-0.96 0.058-0.451 0.115-0.947 0.172-1.487 0.064-0.547 0.123-1.07 0.177-1.57 0.06-0.492 0.096-0.814 0.106-0.964v0c0.11-1.646 0.129-3.22 0.057-4.72-0.078-1.507-0.331-2.989-0.758-4.444-0.427-1.455-1.085-2.836-1.976-4.142-0.884-1.313-2.113-2.57-3.687-3.771z" fill="#89939e" data-fill-palette-color="accent"></path><path d="M134.198 215.93v0c0.517-0.389 1.014-0.57 1.489-0.544 0.471 0.035 0.902 0.207 1.295 0.518 0.386 0.312 0.717 0.703 0.994 1.171 0.279 0.475 0.527 0.94 0.744 1.395v0c0.358-1.228 1.042-2.318 2.054-3.267 1.017-0.958 2.172-1.722 3.467-2.29 1.301-0.57 2.643-0.97 4.026-1.199 1.384-0.222 2.604-0.228 3.66-0.017 1.064 0.215 1.892 0.673 2.484 1.372 0.592 0.699 0.736 1.656 0.432 2.871v0c-1.446-0.401-2.914-0.643-4.406-0.727-1.483-0.079-2.858 0.123-4.125 0.606-1.267 0.483-2.347 1.291-3.241 2.423-0.894 1.132-1.467 2.708-1.721 4.726-0.252 2.025-0.071 4.57 0.543 7.636 0.605 3.061 1.777 6.763 3.516 11.107v0l-2.746 0.709c0 0-0.14-0.39-0.419-1.17-0.278-0.773-0.621-1.803-1.032-3.089-0.41-1.286-0.881-2.712-1.413-4.28-0.53-1.56-1.058-3.15-1.582-4.768-0.518-1.62-1.009-3.18-1.473-4.679-0.467-1.506-0.89-2.802-1.27-3.89v0c-0.038-0.146-0.126-0.433-0.264-0.859-0.138-0.426-0.273-0.892-0.404-1.398-0.132-0.513-0.254-0.985-0.366-1.418-0.112-0.433-0.192-0.746-0.242-0.939z" fill="#89939e" data-fill-palette-color="accent"></path><path d="M163.517 218.882v0c-0.763-1.29-1.329-2.884-1.7-4.782-0.371-1.897-0.469-3.808-0.296-5.731 0.164-1.926 0.585-3.712 1.265-5.36 0.68-1.648 1.685-2.865 3.017-3.652v0c0.728-0.43 1.536-0.704 2.425-0.822 0.883-0.114 1.804-0.124 2.763-0.027 0.953 0.1 1.885 0.304 2.795 0.612 0.906 0.303 1.713 0.709 2.42 1.218 0.702 0.512 1.255 1.083 1.66 1.714 0.405 0.631 0.552 1.299 0.441 2.003v0l-12.108 10.547c-0.147 0.143-0.177 0.436-0.091 0.88 0.089 0.435 0.255 0.959 0.499 1.574 0.24 0.609 0.526 1.262 0.859 1.96 0.33 0.707 0.655 1.386 0.975 2.036 0.326 0.646 0.636 1.218 0.929 1.714 0.29 0.491 0.512 0.867 0.667 1.128v0c0.71 1.202 1.577 2.007 2.602 2.416 1.024 0.409 2.103 0.538 3.236 0.388 1.131-0.141 2.301-0.485 3.511-1.033 1.219-0.545 2.385-1.146 3.498-1.804 1.119-0.661 2.148-1.325 3.087-1.992 0.936-0.673 1.727-1.2 2.372-1.582v0c0.101 0.172 0.15 0.403 0.146 0.693-0.001 0.296-0.031 0.589-0.091 0.88-0.056 0.297-0.126 0.57-0.211 0.819-0.081 0.255-0.13 0.416-0.146 0.482v0c-0.291 0.292-0.748 0.721-1.371 1.29-0.623 0.568-1.292 1.151-2.008 1.75-0.716 0.599-1.393 1.143-2.031 1.631-0.64 0.498-1.087 0.822-1.342 0.973v0c-1.178 1.048-2.35 1.712-3.517 1.995-1.167 0.282-2.309 0.262-3.426-0.06-1.12-0.328-2.208-0.891-3.263-1.69-1.045-0.796-2.034-1.733-2.967-2.811-0.923-1.076-1.773-2.251-2.55-3.525-0.786-1.276-1.469-2.554-2.049-3.832zM166.346 202.343v0c-0.385 0.227-0.77 0.731-1.157 1.51-0.38 0.776-0.656 1.634-0.827 2.574-0.165 0.936-0.222 1.868-0.169 2.795 0.049 0.921 0.293 1.604 0.731 2.048v0c1.192-0.537 2.338-1.246 3.439-2.128 1.1-0.882 2.038-1.795 2.813-2.741 0.772-0.951 1.333-1.866 1.684-2.744 0.355-0.873 0.368-1.559 0.041-2.061-0.328-0.501-1.009-0.721-2.044-0.661-1.035 0.06-2.538 0.53-4.511 1.408z" fill="#89939e" data-fill-palette-color="accent"></path><path d="M201.061 213.171v0c-0.676-0.436-1.621-1.117-2.836-2.045-1.21-0.923-2.569-1.977-4.079-3.162-1.519-1.185-3.098-2.433-4.736-3.744-1.628-1.312-3.182-2.562-4.663-3.75-1.481-1.188-2.826-2.243-4.035-3.166-1.215-0.927-2.176-1.59-2.883-1.99v0c-0.037-0.031-0.14-0.1-0.31-0.208-0.166-0.113-0.352-0.239-0.559-0.377-0.208-0.148-0.377-0.278-0.508-0.389-0.131-0.111-0.236-0.2-0.315-0.266v0c0.022-0.953 0.28-1.568 0.774-1.844 0.49-0.271 1.105-0.322 1.846-0.155 0.737 0.172 1.534 0.522 2.394 1.05 0.859 0.528 1.694 1.085 2.504 1.67 0.816 0.59 1.536 1.149 2.161 1.677 0.63 0.532 1.079 0.912 1.347 1.138v0c-0.589-0.624-1.255-1.38-1.998-2.269-0.748-0.893-1.454-1.881-2.116-2.961-0.657-1.077-1.245-2.213-1.765-3.409-0.53-1.195-0.861-2.406-0.993-3.634-0.142-1.227-0.059-2.413 0.249-3.556 0.314-1.139 0.958-2.21 1.933-3.214v0c1.499-1.614 3.123-2.61 4.871-2.986 1.759-0.377 3.611-0.284 5.557 0.279 1.94 0.559 3.944 1.469 6.011 2.729 2.077 1.26 4.185 2.712 6.324 4.356 2.139 1.645 4.248 3.377 6.329 5.198 2.081 1.83 4.094 3.566 6.036 5.208v0c-0.21 0.408-0.375 0.854-0.494 1.337-0.12 0.493-0.285 0.844-0.497 1.052-0.211 0.218-0.519 0.236-0.925 0.056-0.406-0.181-1.019-0.749-1.842-1.704v0c-0.657-0.618-1.66-1.578-3.008-2.88-1.344-1.307-2.903-2.691-4.675-4.151-1.772-1.461-3.67-2.885-5.694-4.271-2.03-1.391-4.034-2.481-6.013-3.27-1.979-0.79-3.858-1.117-5.638-0.982-1.775 0.13-3.306 0.956-4.592 2.48v0c-0.671 2.115-0.552 4.452 0.356 7.01 0.904 2.564 2.289 5.174 4.157 7.832 1.872 2.653 4.089 5.308 6.65 7.967 2.56 2.649 5.156 5.121 7.789 7.417v0c-0.099 0.042-0.237 0.169-0.415 0.379-0.177 0.21-0.381 0.43-0.611 0.659-0.23 0.229-0.451 0.433-0.665 0.612-0.214 0.179-0.355 0.271-0.423 0.277z" fill="#89939e" data-fill-palette-color="accent"></path><path d="M218.27 179.851v0c-2.655-1.027-4.302-2.504-4.943-4.432-0.644-1.937-0.507-4.092 0.411-6.465v0c0.36-0.93 0.719-1.793 1.079-2.591 0.36-0.797 0.777-1.532 1.25-2.203 0.476-0.678 1.042-1.304 1.699-1.876 0.65-0.574 1.475-1.125 2.474-1.652v0c-0.135-0.052-0.42-0.173-0.854-0.364-0.433-0.197-0.905-0.394-1.419-0.593-0.513-0.198-0.991-0.383-1.433-0.554-0.442-0.171-0.757-0.293-0.943-0.365v0c-0.851-0.278-1.94-0.673-3.267-1.186-1.327-0.513-2.731-0.935-4.211-1.264-1.471-0.333-2.956-0.428-4.457-0.286-1.5 0.142-2.847 0.786-4.042 1.931v0c-0.377 0.975-0.564 1.945-0.562 2.912 0.002 0.967 0.028 1.939 0.078 2.916 0.047 0.984 0.059 1.954 0.035 2.911-0.021 0.95-0.221 1.916-0.601 2.897v0c-1.161-0.449-1.986-1.184-2.475-2.206-0.492-1.016-0.748-2.117-0.767-3.305-0.02-1.187 0.115-2.366 0.405-3.536 0.29-1.17 0.598-2.176 0.923-3.016v0c0.464-0.779 0.928-1.495 1.395-2.148 0.464-0.646 1.096-1.176 1.897-1.588 0.801-0.413 1.876-0.668 3.226-0.765 1.347-0.091 3.121 0.061 5.32 0.454 2.197 0.4 4.926 1.054 8.188 1.961 3.259 0.914 7.204 2.159 11.835 3.737v0c0.638 0.143 1.083 0.544 1.337 1.203 0.254 0.658 0.369 1.466 0.346 2.422-0.015 0.953-0.123 1.995-0.324 3.126-0.193 1.127-0.451 2.244-0.776 3.349-0.318 1.108-0.643 2.158-0.975 3.151-0.328 1.001-0.617 1.825-0.868 2.473v0c-0.325 0.84-0.795 1.635-1.409 2.385-0.615 0.75-1.328 1.385-2.14 1.904-0.81 0.512-1.685 0.841-2.626 0.985-0.941 0.145-1.876 0.037-2.806-0.322zM216.891 168.891v0c-0.246 2.581-0.097 4.511 0.448 5.79 0.551 1.282 1.266 2.027 2.144 2.234 0.885 0.209 1.853-0.046 2.906-0.767 1.05-0.714 1.952-1.73 2.704-3.046 0.752-1.316 1.222-2.874 1.41-4.674 0.187-1.8-0.085-3.697-0.818-5.691v0c-1.562 0.037-2.811 0.196-3.745 0.476-0.94 0.278-1.723 0.672-2.348 1.182-0.625 0.51-1.138 1.141-1.539 1.893-0.395 0.754-0.782 1.622-1.162 2.603z" fill="#89939e" data-fill-palette-color="accent"></path><path d="M4.759 126.858c0-12.269 9.946-22.215 22.215-22.215 12.269 0 22.215 9.946 22.215 22.215 0 12.269-9.946 22.215-22.215 22.215-12.269 0-22.215-9.946-22.215-22.215z" fill="#89939e" data-fill-palette-color="accent"></path><path d="M195.243 126.858c0-12.269 9.946-22.215 22.215-22.215 12.269 0 22.215 9.946 22.215 22.215 0 12.269-9.946 22.215-22.215 22.215-12.269 0-22.215-9.946-22.215-22.215z" fill="#89939e" data-fill-palette-color="accent"></path></g><g id="text-1"></g></svg></g></svg></g></svg></g><defs></defs></svg>